<svg width="1771" height="1276" viewBox="0 0 1771 1276" fill="none" xmlns="http://www.w3.org/2000/svg">
<g clip-path="url(#clip0_194_343)">
<rect width="1771" height="1276" fill="#120926"/>
<mask id="mask0_194_343" style="mask-type:alpha" maskUnits="userSpaceOnUse" x="0" y="0" width="1771" height="1276">
<rect width="1771" height="1276" fill="#C4C4C4"/>
</mask>
<g mask="url(#mask0_194_343)">
<g opacity="0.15">
<path d="M229.044 -498.437L229.658 -442.367C233.894 -55.5237 598.621 212.037 860.825 20.6536L900.487 -8.2955C1147.04 -188.256 1489.81 64.9742 1491.71 428.488L1492.48 574.453C1493.84 834.622 1720.07 1033.57 1916 946.892V946.892" stroke="#909090" stroke-width="0.653416"/>
<path d="M214.315 -465.762L214.929 -409.691C219.165 -22.8478 583.892 244.713 846.096 53.3295L885.758 24.3804C1132.31 -155.58 1475.08 97.6501 1476.98 461.164L1477.75 607.129C1479.11 867.298 1705.34 1066.24 1901.27 979.568V979.568" stroke="#909090" stroke-width="0.653416"/>
<path d="M199.589 -433.086L200.203 -377.015C204.44 9.8281 569.166 277.389 831.371 86.0054L871.033 57.0563C1117.59 -122.905 1460.36 130.326 1462.26 493.84L1463.02 639.805C1464.38 899.974 1690.61 1098.92 1886.54 1012.24V1012.24" stroke="#909090" stroke-width="0.653416"/>
<path d="M184.859 -400.411L185.473 -344.34C189.709 42.5032 554.435 310.064 816.64 118.681L856.302 89.7314C1102.86 -90.2294 1445.63 163.001 1447.53 526.515L1448.29 672.48C1449.65 932.649 1675.88 1131.59 1871.81 1044.92V1044.92" stroke="#909090" stroke-width="0.653416"/>
<path d="M170.132 -367.736L170.746 -311.665C174.983 75.1781 539.709 342.739 801.914 151.355L841.576 122.406C1088.13 -57.5546 1430.9 195.676 1432.8 559.19L1433.57 705.155C1434.93 965.324 1661.16 1164.27 1857.09 1077.59V1077.59" stroke="#909090" stroke-width="0.653416"/>
<path d="M155.4 -335.059L156.014 -278.989C160.251 107.854 524.977 375.415 787.182 184.032L826.844 155.083C1073.4 -24.8782 1416.17 228.352 1418.07 591.866L1418.83 737.831C1420.19 998 1646.42 1196.94 1842.35 1110.27V1110.27" stroke="#909090" stroke-width="0.653416"/>
<path d="M140.674 -302.384L141.288 -246.313C145.525 140.53 510.251 408.091 772.456 216.708L812.118 187.758C1058.67 7.7977 1401.44 261.028 1403.34 624.542L1404.11 770.507C1405.47 1030.68 1631.7 1229.62 1827.63 1142.95V1142.95" stroke="#909090" stroke-width="0.653416"/>
<path d="M125.947 -269.709L126.561 -213.638C130.797 173.205 495.523 440.766 757.728 249.382L797.39 220.433C1043.95 40.4725 1386.72 293.703 1388.62 657.217L1389.38 803.182C1390.74 1063.35 1616.97 1262.29 1812.9 1175.62V1175.62" stroke="#909090" stroke-width="0.653416"/>
<path d="M111.217 -237.033L111.831 -180.962C116.068 205.881 480.794 473.442 742.999 282.058L782.661 253.109C1029.22 73.1485 1371.99 326.379 1373.89 689.893L1374.65 835.858C1376.01 1096.03 1602.24 1294.97 1798.17 1208.3V1208.3" stroke="#909090" stroke-width="0.653416"/>
<path d="M96.4903 -204.357L97.1043 -148.287C101.341 238.556 466.067 506.117 728.272 314.734L767.934 285.785C1014.49 105.824 1357.26 359.054 1359.16 722.569L1359.92 868.533C1361.28 1128.7 1587.51 1327.65 1783.44 1240.97V1240.97" stroke="#909090" stroke-width="0.653416"/>
<path d="M81.7605 -171.683L82.3746 -115.612C86.611 271.231 451.337 538.792 713.542 347.409L753.204 318.459C999.759 138.499 1342.53 391.729 1344.43 755.243L1345.19 901.208C1346.55 1161.38 1572.78 1360.32 1768.72 1273.65V1273.65" stroke="#909090" stroke-width="0.653416"/>
<path d="M67.033 -139.007L67.647 -82.936C71.8835 303.907 436.61 571.468 698.815 380.084L738.476 351.135C985.032 171.174 1327.8 424.405 1329.7 787.919L1330.47 933.884C1331.83 1194.05 1558.06 1393 1753.99 1306.32V1306.32" stroke="#909090" stroke-width="0.653416"/>
<path d="M52.3064 -106.332L52.9205 -50.2613C57.1569 336.582 421.883 604.142 684.088 412.759L723.75 383.81C970.305 203.849 1313.08 457.079 1314.98 820.594L1315.74 966.558C1317.1 1226.73 1543.33 1425.67 1739.26 1339V1339" stroke="#909090" stroke-width="0.653416"/>
<path d="M37.5774 -73.6562L38.1915 -17.5853C42.4279 369.258 407.154 636.819 669.359 445.435L709.021 416.486C955.576 236.525 1298.35 489.756 1300.25 853.27L1301.01 999.234C1302.37 1259.4 1528.6 1458.35 1724.53 1371.67V1371.67" stroke="#909090" stroke-width="0.653416"/>
<path d="M22.8487 -40.9801L23.4627 15.0907C27.6991 401.934 392.425 669.495 654.63 478.111L694.292 449.162C940.847 269.201 1283.62 522.432 1285.52 885.946L1286.28 1031.91C1287.64 1292.08 1513.87 1491.02 1709.8 1404.35V1404.35" stroke="#909090" stroke-width="0.653416"/>
<path d="M8.46879 -9.07821L9.08284 46.9926C13.3193 433.836 378.046 701.396 640.251 510.013L679.912 481.064C926.467 301.103 1269.24 554.333 1271.14 917.848L1271.9 1063.81C1273.26 1323.98 1499.49 1522.93 1695.42 1436.25V1436.25" stroke="#909090" stroke-width="0.653416"/>
<path d="M-5.91061 22.8238L-5.29656 78.8947C-1.06013 465.738 363.666 733.298 625.871 541.915L665.533 512.966C912.088 333.005 1254.86 586.235 1256.76 949.75L1257.52 1095.71C1258.88 1355.88 1485.11 1554.83 1681.04 1468.15V1468.15" stroke="#909090" stroke-width="0.653416"/>
<path d="M-20.2902 54.7261L-19.6762 110.797C-15.4398 497.64 349.287 765.201 611.491 573.817L651.153 544.868C897.708 364.907 1240.48 618.138 1242.38 981.652L1243.14 1127.62C1244.5 1387.79 1470.73 1586.73 1666.66 1500.06V1500.06" stroke="#909090" stroke-width="0.653416"/>
<path d="M-34.6701 86.628L-34.0561 142.699C-29.8197 529.542 334.907 797.103 597.112 605.719L636.773 576.77C883.328 396.809 1226.1 650.04 1228 1013.55L1228.76 1159.52C1230.12 1419.69 1456.35 1618.63 1652.28 1531.96V1531.96" stroke="#909090" stroke-width="0.653416"/>
<path d="M-49.0498 118.53L-48.4357 174.601C-44.1993 561.444 320.527 829.004 582.732 637.621L622.394 608.672C868.949 428.711 1211.72 681.941 1213.62 1045.46L1214.38 1191.42C1215.74 1451.59 1441.97 1650.53 1637.9 1563.86V1563.86" stroke="#909090" stroke-width="0.653416"/>
<path d="M-63.4294 150.432L-62.8154 206.503C-58.5789 593.346 306.147 860.907 568.352 669.523L608.014 640.574C854.569 460.613 1197.34 713.844 1199.24 1077.36L1200 1223.32C1201.36 1483.49 1427.59 1682.44 1623.53 1595.76V1595.76" stroke="#909090" stroke-width="0.653416"/>
<path d="M-77.8088 182.334L-77.1948 238.405C-72.9583 625.248 291.768 892.809 553.973 701.425L593.635 672.476C840.19 492.515 1182.96 745.746 1184.86 1109.26L1185.62 1255.22C1186.99 1515.39 1413.22 1714.34 1609.15 1627.66V1627.66" stroke="#909090" stroke-width="0.653416"/>
<path d="M-92.1884 214.236L-91.5744 270.307C-87.338 657.15 277.388 924.71 539.593 733.327L579.255 704.378C825.81 524.417 1168.58 777.647 1170.48 1141.16L1171.25 1287.13C1172.61 1547.3 1398.84 1746.24 1594.77 1659.57V1659.57" stroke="#909090" stroke-width="0.653416"/>
<path d="M-106.568 246.138L-105.954 302.209C-101.718 689.052 263.009 956.613 525.214 765.229L564.875 736.28C811.431 556.32 1154.2 809.55 1156.1 1173.06L1156.87 1319.03C1158.23 1579.2 1384.46 1778.14 1580.39 1691.47V1691.47" stroke="#909090" stroke-width="0.653416"/>
<path d="M-120.948 278.04L-120.334 334.111C-116.097 720.954 248.629 988.514 510.834 797.131L550.495 768.182C797.051 588.221 1139.82 841.451 1141.72 1204.97L1142.49 1350.93C1143.85 1611.1 1370.08 1810.04 1566.01 1723.37V1723.37" stroke="#909090" stroke-width="0.653416"/>
<path d="M-135.328 309.942L-134.714 366.013C-130.477 752.856 234.249 1020.42 496.454 829.033L536.116 800.084C782.671 620.123 1125.44 873.354 1127.34 1236.87L1128.11 1382.83C1129.47 1643 1355.7 1841.95 1551.63 1755.27V1755.27" stroke="#909090" stroke-width="0.653416"/>
<path d="M-149.707 341.844L-149.093 397.915C-144.857 784.758 219.869 1052.32 482.074 860.935L521.736 831.986C768.291 652.025 1111.06 905.256 1112.96 1268.77L1113.73 1414.73C1115.09 1674.9 1341.32 1873.85 1537.25 1787.17V1787.17" stroke="#909090" stroke-width="0.653416"/>
<path d="M-164.087 373.746L-163.473 429.817C-159.236 816.66 205.49 1084.22 467.695 892.837L507.357 863.888C753.912 683.927 1096.68 937.158 1098.58 1300.67L1099.35 1446.64C1100.71 1706.81 1326.94 1905.75 1522.87 1819.08V1819.08" stroke="#909090" stroke-width="0.653416"/>
<path d="M-178.467 405.648L-177.852 461.719C-173.616 848.562 191.11 1116.12 453.315 924.739L492.977 895.79C739.532 715.83 1082.3 969.06 1084.2 1332.57L1084.97 1478.54C1086.33 1738.71 1312.56 1937.65 1508.49 1850.98V1850.98" stroke="#909090" stroke-width="0.653416"/>
</g>
</g>
</g>
<defs>
<clipPath id="clip0_194_343">
<rect width="1771" height="1276" fill="white"/>
</clipPath>
</defs>
</svg>
