<svg width="1771" height="1252" viewBox="0 0 1771 1252" fill="none" xmlns="http://www.w3.org/2000/svg">
<g clip-path="url(#clip0_125_108)">
<rect width="1771" height="1252" fill="#120926"/>
<mask id="mask0_125_108" style="mask-type:alpha" maskUnits="userSpaceOnUse" x="0" y="0" width="1771" height="1252">
<rect width="1771" height="1252" fill="#C4C4C4"/>
</mask>
<g mask="url(#mask0_125_108)">
<g opacity="0.15">
<path d="M468.216 222.439L468.621 242.884C471.713 399.195 678.413 482.779 870.223 405.279L896.185 394.789C1076.36 321.991 1270.26 401.247 1271.65 548.257L1272.05 590.133C1273.07 698.388 1401.62 765.816 1541.63 731.531V731.531" stroke="#909090" stroke-width="0.653416"/>
<path d="M458.844 233.949L459.248 254.393C462.341 410.705 669.041 494.288 860.85 416.789L886.813 406.299C1066.99 333.5 1260.89 412.756 1262.28 559.767L1262.67 601.642C1263.7 709.897 1392.25 777.326 1532.26 743.041V743.041" stroke="#909090" stroke-width="0.653416"/>
<path d="M449.474 245.458L449.879 265.903C452.971 422.214 659.671 505.798 851.48 428.298L877.443 417.808C1057.62 345.01 1251.52 424.266 1252.91 571.276L1253.3 613.152C1254.33 721.407 1382.88 788.835 1522.89 754.551V754.551" stroke="#909090" stroke-width="0.653416"/>
<path d="M440.101 256.968L440.506 277.412C443.598 433.724 650.298 517.307 842.108 439.808L868.07 429.318C1048.24 356.519 1242.15 435.775 1243.53 582.785L1243.93 624.661C1244.95 732.916 1373.51 800.344 1513.51 766.06V766.06" stroke="#909090" stroke-width="0.653416"/>
<path d="M430.731 268.477L431.135 288.921C434.227 445.233 640.928 528.816 832.737 451.317L858.699 440.827C1038.87 368.028 1232.78 447.284 1234.16 594.295L1234.56 636.17C1235.58 744.425 1364.14 811.853 1504.14 777.569V777.569" stroke="#909090" stroke-width="0.653416"/>
<path d="M421.357 279.986L421.761 300.431C424.854 456.743 631.554 540.326 823.363 462.826L849.326 452.336C1029.5 379.538 1223.4 458.794 1224.79 605.804L1225.19 647.68C1226.21 755.935 1354.76 823.363 1494.77 789.079V789.079" stroke="#909090" stroke-width="0.653416"/>
<path d="M411.987 291.496L412.391 311.94C415.484 468.252 622.184 551.835 813.993 474.336L839.955 463.846C1020.13 391.048 1214.03 470.303 1215.42 617.314L1215.82 659.189C1216.84 767.444 1345.39 834.873 1485.4 800.588V800.588" stroke="#909090" stroke-width="0.653416"/>
<path d="M402.615 303.005L403.02 323.45C406.112 479.761 612.813 563.345 804.622 485.845L830.584 475.355C1010.76 402.557 1204.66 481.813 1206.05 628.823L1206.44 670.699C1207.47 778.953 1336.02 846.382 1476.03 812.097V812.097" stroke="#909090" stroke-width="0.653416"/>
<path d="M393.243 314.515L393.647 334.959C396.74 491.271 603.44 574.854 795.249 497.355L821.212 486.865C1001.39 414.066 1195.29 493.322 1196.68 640.332L1197.07 682.208C1198.09 790.463 1326.65 857.891 1466.66 823.607V823.607" stroke="#909090" stroke-width="0.653416"/>
<path d="M383.872 326.024L384.277 346.468C387.369 502.78 594.07 586.363 785.879 508.864L811.841 498.374C992.015 425.576 1185.92 504.831 1187.31 651.842L1187.7 693.717C1188.72 801.972 1317.28 869.401 1457.29 835.116V835.116" stroke="#909090" stroke-width="0.653416"/>
<path d="M374.499 337.533L374.904 357.978C377.996 514.289 584.697 597.873 776.506 520.373L802.468 509.883C982.642 437.085 1176.54 516.341 1177.93 663.351L1178.33 705.227C1179.35 813.481 1307.91 880.91 1447.91 846.625V846.625" stroke="#909090" stroke-width="0.653416"/>
<path d="M365.128 349.043L365.533 369.487C368.625 525.799 575.326 609.382 767.135 531.883L793.097 521.393C973.271 448.594 1167.17 527.85 1168.56 674.86L1168.96 716.736C1169.98 824.991 1298.54 892.419 1438.54 858.135V858.135" stroke="#909090" stroke-width="0.653416"/>
<path d="M355.758 360.552L356.162 380.996C359.255 537.308 565.955 620.891 757.764 543.392L783.726 532.902C963.9 460.103 1157.8 539.359 1159.19 686.369L1159.59 728.245C1160.61 836.5 1289.17 903.928 1429.17 869.644V869.644" stroke="#909090" stroke-width="0.653416"/>
<path d="M346.386 372.061L346.79 392.506C349.883 548.817 556.583 632.401 748.392 554.901L774.354 544.411C954.528 471.613 1148.43 550.869 1149.82 697.879L1150.22 739.755C1151.24 848.01 1279.79 915.438 1419.8 881.153V881.153" stroke="#909090" stroke-width="0.653416"/>
<path d="M337.014 383.571L337.418 404.015C340.511 560.327 547.211 643.91 739.02 566.411L764.983 555.921C945.156 483.122 1139.06 562.378 1140.45 709.389L1140.84 751.264C1141.87 859.519 1270.42 926.947 1410.43 892.663V892.663" stroke="#909090" stroke-width="0.653416"/>
<path d="M327.864 394.808L328.268 415.252C331.361 571.564 538.061 655.147 729.87 577.648L755.833 567.158C936.006 494.359 1129.91 573.615 1131.3 720.626L1131.69 762.501C1132.72 870.756 1261.27 938.184 1401.28 903.9V903.9" stroke="#909090" stroke-width="0.653416"/>
<path d="M318.714 406.045L319.119 426.489C322.211 582.801 528.912 666.384 720.721 588.885L746.683 578.395C926.857 505.596 1120.76 584.852 1122.15 731.862L1122.54 773.738C1123.57 881.993 1252.12 949.421 1392.13 915.137V915.137" stroke="#909090" stroke-width="0.653416"/>
<path d="M309.564 417.282L309.969 437.726C313.061 594.038 519.762 677.621 711.571 600.122L737.533 589.632C917.707 516.833 1111.61 596.089 1113 743.099L1113.39 784.975C1114.42 893.23 1242.97 960.658 1382.98 926.374V926.374" stroke="#909090" stroke-width="0.653416"/>
<path d="M300.414 428.518L300.819 448.963C303.911 605.275 510.612 688.858 702.421 611.358L728.383 600.869C908.557 528.07 1102.46 607.326 1103.85 754.336L1104.24 796.212C1105.27 904.467 1233.82 971.895 1373.83 937.611V937.611" stroke="#909090" stroke-width="0.653416"/>
<path d="M291.265 439.755L291.669 460.2C294.762 616.511 501.462 700.095 693.271 622.595L719.233 612.105C899.407 539.307 1093.31 618.563 1094.7 765.573L1095.09 807.449C1096.12 915.704 1224.67 983.132 1364.68 948.847V948.847" stroke="#909090" stroke-width="0.653416"/>
<path d="M282.115 450.992L282.519 471.437C285.612 627.749 492.312 711.332 684.121 633.832L710.083 623.342C890.257 550.544 1084.16 629.8 1085.55 776.81L1085.94 818.686C1086.97 926.941 1215.52 994.369 1355.53 960.085V960.085" stroke="#909090" stroke-width="0.653416"/>
<path d="M272.965 462.229L273.37 482.674C276.462 638.985 483.162 722.569 674.971 645.069L700.934 634.579C881.108 561.781 1075.01 641.037 1076.4 788.047L1076.79 829.923C1077.82 938.178 1206.37 1005.61 1346.38 971.321V971.321" stroke="#909090" stroke-width="0.653416"/>
<path d="M263.816 473.466L264.22 493.911C267.312 650.222 474.013 733.806 665.822 656.306L691.784 645.816C871.958 573.018 1065.86 652.274 1067.25 799.284L1067.64 841.16C1068.67 949.414 1197.22 1016.84 1337.23 982.558V982.558" stroke="#909090" stroke-width="0.653416"/>
<path d="M254.666 484.703L255.07 505.148C258.162 661.459 464.863 745.043 656.672 667.543L682.634 657.053C862.808 584.255 1056.71 663.511 1058.1 810.521L1058.49 852.397C1059.52 960.652 1188.07 1028.08 1328.08 993.795V993.795" stroke="#909090" stroke-width="0.653416"/>
<path d="M245.516 495.94L245.92 516.385C249.013 672.696 455.713 756.279 647.522 678.78L673.484 668.29C853.658 595.492 1047.56 674.748 1048.95 821.758L1049.34 863.633C1050.37 971.888 1178.92 1039.32 1318.93 1005.03V1005.03" stroke="#909090" stroke-width="0.653416"/>
<path d="M236.366 507.177L236.77 527.622C239.863 683.933 446.563 767.517 638.372 690.017L664.334 679.527C844.508 606.729 1038.41 685.985 1039.8 832.995L1040.19 874.871C1041.22 983.125 1169.77 1050.55 1309.78 1016.27V1016.27" stroke="#909090" stroke-width="0.653416"/>
<path d="M227.216 518.414L227.621 538.859C230.713 695.17 437.413 778.753 629.222 701.254L655.185 690.764C835.358 617.966 1029.26 697.221 1030.65 844.232L1031.05 886.107C1032.07 994.362 1160.62 1061.79 1300.63 1027.51V1027.51" stroke="#909090" stroke-width="0.653416"/>
<path d="M218.066 529.651L218.471 550.095C221.563 706.407 428.264 789.99 620.073 712.491L646.035 702.001C826.209 629.203 1020.11 708.458 1021.5 855.469L1021.9 897.344C1022.92 1005.6 1151.47 1073.03 1291.48 1038.74V1038.74" stroke="#909090" stroke-width="0.653416"/>
<path d="M208.916 540.888L209.321 561.332C212.413 717.644 419.114 801.227 610.923 723.728L636.885 713.238C817.059 640.44 1010.96 719.695 1012.35 866.706L1012.75 908.581C1013.77 1016.84 1142.32 1084.26 1282.33 1049.98V1049.98" stroke="#909090" stroke-width="0.653416"/>
</g>
</g>
<path d="M1664.32 171.273L1662.64 153.116L1645.86 158.88C1617.11 169.177 1586.41 172.337 1556.26 168.103C1524.57 163.034 1492.14 167.538 1462.88 181.073C1447.37 187.881 1433.76 198.58 1423.28 212.196C1412.81 225.813 1405.8 241.914 1402.91 259.033C1399.15 281.149 1401.03 303.891 1408.36 325.033C1413.08 314.054 1418.59 303.456 1424.86 293.33C1439.06 271.784 1458.74 254.684 1481.75 243.902C1503.91 233.471 1528.14 228.536 1552.48 229.492C1529.31 233.145 1507.12 241.733 1487.34 254.71C1477.8 260.89 1469.06 268.299 1461.34 276.758C1453.96 285.213 1447.44 294.438 1441.91 304.282C1431.52 324.861 1424.12 346.905 1419.96 369.706C1415.48 392.58 1413.05 415.831 1412.69 439.164H1440.65C1441.97 418.238 1444.72 397.434 1448.9 376.911C1468.29 387.707 1490.04 393.214 1512.08 392.907C1532.64 392.892 1552.98 388.629 1571.91 380.37C1678.3 333.536 1664.32 177.758 1664.32 171.273Z" fill="#692ABF" fill-opacity="0.29"/>
<g clip-path="url(#clip1_125_108)">
<path d="M1636.11 505.911L1644.68 499.711L1636.9 492.502C1623.35 480.268 1612.8 464.913 1606.09 447.684C1599.35 429.398 1587.62 413.516 1572.31 401.96C1564.38 395.726 1555.06 391.637 1545.2 390.065C1535.34 388.493 1525.26 389.488 1515.87 392.959C1503.74 397.435 1492.94 405.082 1484.53 415.151C1491.39 414.442 1498.29 414.267 1505.17 414.627C1520.08 415.858 1534.37 421.295 1546.48 430.341C1558.16 439.043 1567.71 450.446 1574.35 463.635C1565.75 452.413 1554.98 443.161 1542.72 436.467C1536.84 433.215 1530.59 430.749 1524.11 429.127C1517.73 427.684 1511.23 426.928 1504.7 426.873C1491.39 427.38 1478.23 429.905 1465.63 434.368C1452.91 438.68 1440.59 444.19 1428.85 450.826L1437.02 465.652C1447.85 460.229 1459.04 455.606 1470.5 451.819C1470.78 465.261 1474.4 478.405 1481 490.003C1487.01 500.899 1495.09 510.44 1504.75 518.063C1559.23 560.777 1632.87 507.807 1636.11 505.911Z" fill="#692ABF" fill-opacity="0.29"/>
</g>
<g clip-path="url(#clip2_125_108)">
<path d="M1223.84 307.376L1213.8 310.427L1218.94 319.822C1227.98 335.877 1233.22 353.905 1234.23 372.44C1234.94 391.987 1241.14 410.902 1252.06 426.896C1257.65 435.417 1265.21 442.362 1274.06 447.1C1282.91 451.837 1292.78 454.217 1302.75 454.022C1315.63 453.779 1328.24 450.091 1339.33 443.32C1332.61 441.732 1326.01 439.624 1319.6 437.015C1305.86 430.937 1294.01 421.077 1285.34 408.516C1276.96 396.419 1271.45 382.469 1269.25 367.783C1273.92 381.25 1281.26 393.567 1290.8 403.949C1295.36 408.966 1300.52 413.363 1306.15 417.035C1311.75 420.504 1317.68 423.365 1323.85 425.569C1336.62 429.473 1349.87 431.417 1363.19 431.338C1376.59 431.445 1389.96 430.282 1403.15 427.864L1400 411.123C1388.06 412.694 1376.03 413.388 1363.99 413.199C1367.89 400.368 1368.54 386.723 1365.88 373.56C1363.56 361.253 1358.86 349.551 1352.08 339.146C1313.7 280.721 1227.49 306.646 1223.84 307.376Z" fill="#692ABF" fill-opacity="0.29"/>
</g>
<path d="M1745.5 332.918C1745.5 487.667 1622.93 612.899 1472 612.899C1321.07 612.899 1198.5 487.667 1198.5 332.918C1198.5 178.169 1321.07 52.9376 1472 52.9376C1622.93 52.9376 1745.5 178.169 1745.5 332.918Z" stroke="url(#paint0_linear_125_108)" stroke-width="11"/>
<path d="M1786 332.919C1786 510.987 1645.03 654.631 1472 654.631C1298.97 654.631 1158 510.987 1158 332.919C1158 154.85 1298.97 11.207 1472 11.207C1645.03 11.207 1786 154.85 1786 332.919Z" stroke="url(#paint1_linear_125_108)" stroke-width="36"/>
<path d="M1872.5 333.5C1872.5 553.773 1693.5 732.5 1472.5 732.5C1251.5 732.5 1072.5 553.773 1072.5 333.5C1072.5 113.227 1251.5 -65.5 1472.5 -65.5C1693.5 -65.5 1872.5 113.227 1872.5 333.5Z" stroke="url(#paint2_linear_125_108)" stroke-width="83"/>
</g>
<defs>
<linearGradient id="paint0_linear_125_108" x1="1751" y1="341.484" x2="1192.98" y2="324.893" gradientUnits="userSpaceOnUse">
<stop stop-color="#2B1252"/>
<stop offset="1" stop-color="#6028B8" stop-opacity="0.21"/>
</linearGradient>
<linearGradient id="paint1_linear_125_108" x1="1804" y1="329.705" x2="1139.99" y2="335.542" gradientUnits="userSpaceOnUse">
<stop stop-color="#2B1252"/>
<stop offset="1" stop-color="#3E1C72" stop-opacity="0.34"/>
</linearGradient>
<linearGradient id="paint2_linear_125_108" x1="1914" y1="329.332" x2="1031" y2="337.293" gradientUnits="userSpaceOnUse">
<stop stop-color="#2B1252"/>
<stop offset="1" stop-color="#3E1C72" stop-opacity="0.12"/>
</linearGradient>
<clipPath id="clip0_125_108">
<rect width="1771" height="1252" fill="white"/>
</clipPath>
<clipPath id="clip1_125_108">
<rect width="203.166" height="200.033" fill="white" transform="matrix(0.482929 0.875659 -0.862748 0.505634 1570.69 328.461)"/>
</clipPath>
<clipPath id="clip2_125_108">
<rect width="204.427" height="198.744" fill="white" transform="matrix(-0.184934 -0.982751 0.980585 -0.196093 1230.81 497.073)"/>
</clipPath>
</defs>
</svg>
