<svg width="162" height="50" viewBox="0 0 162 50" fill="none" xmlns="http://www.w3.org/2000/svg">
<path d="M30.2501 15.6887L30.0851 13.9562L28.4351 14.5062C25.6073 15.4887 22.5876 15.7902 19.6214 15.3862C16.5044 14.9025 13.3141 15.3324 10.4364 16.6237C8.91077 17.2734 7.5719 18.2942 6.54164 19.5935C5.51138 20.8927 4.82247 22.429 4.53761 24.0625C4.16826 26.1727 4.35304 28.3426 5.07386 30.36C5.538 29.3124 6.08037 28.3012 6.69636 27.335C8.09364 25.2791 10.0297 23.6475 12.2926 22.6187C14.4726 21.6234 16.8554 21.1525 19.2501 21.2437C16.9704 21.5923 14.7882 22.4118 12.8426 23.65C11.9041 24.2397 11.0447 24.9466 10.2851 25.7537C9.55865 26.5605 8.91812 27.4406 8.37386 28.38C7.35159 30.3435 6.6242 32.4469 6.21511 34.6225C5.77417 36.8051 5.53483 39.0236 5.50011 41.25H8.25011C8.37936 39.2533 8.65046 37.2683 9.06136 35.31C10.9691 36.3401 13.1085 36.8655 15.2764 36.8362C17.2983 36.8349 19.2994 36.4281 21.1614 35.64C31.6251 31.1712 30.2501 16.3075 30.2501 15.6887Z" fill="white"/>
<path d="M33.12 41.76C33.0133 41.76 32.96 41.6267 32.96 41.36C32.96 41.2267 32.9733 41.0667 33 40.88C33.0267 40.6933 33.0933 40.4667 33.2 40.2C33.44 39.5067 33.8667 38.56 34.48 37.36C35.0933 36.1867 35.8133 34.8667 36.64 33.4C37.4933 31.9067 38.4133 30.36 39.4 28.76C40.3867 27.16 41.3867 25.5733 42.4 24C43.4133 22.4267 44.3733 20.96 45.28 19.6C46.2133 18.2133 47.04 17.0133 47.76 16C48.48 14.9867 49.04 14.24 49.44 13.76C49.8933 12.4 50.3867 11.32 50.92 10.52C51.4533 9.72 52 9.32 52.56 9.32C52.9867 9.32 53.4533 9.41333 53.96 9.6C54.4667 9.76 54.9067 9.97333 55.28 10.24C55.6533 10.48 55.84 10.7467 55.84 11.04C55.84 11.28 55.7333 11.4667 55.52 11.6C54.9067 12.1067 54.36 12.8667 53.88 13.88C53.4267 14.8933 53.04 16.0667 52.72 17.4C52.4 18.7067 52.16 20.1067 52 21.6C51.84 23.0667 51.76 24.52 51.76 25.96C51.76 27.5333 51.8533 29.0267 52.04 30.44C52.2267 31.8533 52.52 33.04 52.92 34C53.24 33.1467 53.72 32.0933 54.36 30.84C55 29.56 55.7333 28.1733 56.56 26.68C57.3867 25.16 58.2533 23.6267 59.16 22.08C60.0667 20.5067 60.9467 19.0133 61.8 17.6C62.68 16.16 63.48 14.88 64.2 13.76C64.9467 12.6133 65.56 11.7067 66.04 11.04C66.5467 10.3733 66.8533 10.04 66.96 10.04C67.04 10.04 67.1733 10.0267 67.36 10C67.5733 9.94667 67.7733 9.92 67.96 9.92C68.36 9.92 68.56 10.0267 68.56 10.24C68.56 10.4267 68.4667 10.6267 68.28 10.84C66.92 12.6267 65.5067 14.6 64.04 16.76C62.5733 18.8933 61.1467 21.0667 59.76 23.28C58.4 25.4933 57.16 27.6 56.04 29.6C54.92 31.6 54.0133 33.36 53.32 34.88L53.44 35.08C53.7867 35.6667 54.2133 36.12 54.72 36.44C55.2267 36.7867 55.6933 36.96 56.12 36.96C56.4133 36.96 56.68 36.88 56.92 36.72C56.9467 36.72 56.96 36.7067 56.96 36.68C56.9867 36.68 57 36.68 57 36.68C57.1067 36.68 57.1733 36.7333 57.2 36.84C57.2267 36.9733 57.2 37.0667 57.12 37.12C56.5067 37.5467 55.8267 37.76 55.08 37.76C54.4667 37.76 53.8533 37.5867 53.24 37.24C52.6267 36.8933 52.0667 36.3867 51.56 35.72C50.28 33.9867 49.3733 32.0133 48.84 29.8C48.3067 27.5867 48.04 25.3733 48.04 23.16C48.04 21.96 48.1067 20.7867 48.24 19.64C48.3733 18.4933 48.5467 17.4 48.76 16.36C47.64 17.88 46.4667 19.5467 45.24 21.36C44.04 23.1467 42.84 24.9867 41.64 26.88C40.44 28.7733 39.3067 30.6267 38.24 32.44C37.1733 34.2267 36.2267 35.88 35.4 37.4C34.5733 38.92 33.9333 40.2267 33.48 41.32C33.3467 41.6133 33.2267 41.76 33.12 41.76ZM71.3584 37.56C71.0118 37.4267 70.6651 37.1867 70.3184 36.84C69.9984 36.4933 69.8384 35.8933 69.8384 35.04C69.8384 34.32 69.9584 33.5733 70.1984 32.8C70.4384 32 70.7451 31.2133 71.1184 30.44C70.4251 31.32 69.6651 32.1867 68.8384 33.04C68.0384 33.8933 67.2251 34.6 66.3984 35.16C65.5984 35.6933 64.8518 35.96 64.1584 35.96C63.5718 35.96 63.0784 35.8 62.6784 35.48C62.3051 35.16 62.1184 34.6667 62.1184 34C62.1184 33.52 62.2118 33 62.3984 32.44C62.5851 31.88 62.9184 31.2533 63.3984 30.56C63.8784 29.8667 64.3984 29.1867 64.9584 28.52C65.5451 27.8267 66.0518 27.24 66.4784 26.76C66.7718 26.4133 66.9184 26.1333 66.9184 25.92C66.9184 25.6533 66.7718 25.52 66.4784 25.52C66.1584 25.52 65.7051 25.7333 65.1184 26.16C64.5051 26.6133 63.8518 27.1733 63.1584 27.84C62.4651 28.48 61.8118 29.1067 61.1984 29.72C60.5851 30.3067 60.0651 30.7733 59.6384 31.12C59.5584 31.2 59.4784 31.24 59.3984 31.24C59.2651 31.24 59.1984 31.16 59.1984 31C59.1984 30.8667 59.3184 30.6933 59.5584 30.48C60.7318 29.4667 61.7051 28.5467 62.4784 27.72C63.2518 26.8667 64.0118 26.1467 64.7584 25.56C65.1584 25.24 65.5718 25.0133 65.9984 24.88C66.4251 24.72 66.8251 24.64 67.1984 24.64C67.8384 24.64 68.3718 24.8267 68.7984 25.2C69.2251 25.5733 69.4384 26.0933 69.4384 26.76C69.4384 27.2667 69.3051 27.8 69.0384 28.36C68.7451 29.0267 68.3451 29.6933 67.8384 30.36C67.3584 31 66.8918 31.6267 66.4384 32.24C66.0918 32.7467 65.8384 33.16 65.6784 33.48C65.5184 33.8 65.4384 34.04 65.4384 34.2C65.4384 34.4133 65.5451 34.52 65.7584 34.52C65.9718 34.52 66.2784 34.4 66.6784 34.16C67.0784 33.92 67.4918 33.6133 67.9184 33.24C68.2118 32.9733 68.4651 32.7333 68.6784 32.52C68.9184 32.28 69.0918 32.1067 69.1984 32C69.8118 31.36 70.4251 30.68 71.0384 29.96C71.6518 29.2133 72.1851 28.5333 72.6384 27.92C72.9851 27.4667 73.2518 27.12 73.4384 26.88C73.6518 26.64 73.8784 26.3867 74.1184 26.12C74.5718 25.6133 75.0518 25.3467 75.5584 25.32C75.8518 25.32 76.1851 25.3867 76.5584 25.52C76.9584 25.6267 77.3451 25.8533 77.7184 26.2C77.4518 26.5733 77.0518 27.0933 76.5184 27.76C76.0118 28.4 75.4518 29.12 74.8384 29.92C74.2518 30.6933 73.6784 31.4933 73.1184 32.32C72.5851 33.1467 72.1451 33.92 71.7984 34.64C71.4518 35.36 71.2784 35.9867 71.2784 36.52C71.2784 36.8933 71.3851 37.1867 71.5984 37.4C71.7051 37.5067 71.7051 37.56 71.5984 37.56C71.4918 37.5867 71.4118 37.5867 71.3584 37.56ZM86.3978 36.04C85.7311 36.04 85.1978 35.8533 84.7978 35.48C84.4245 35.1067 84.2378 34.6 84.2378 33.96C84.2378 33.56 84.3311 33.1067 84.5178 32.6C84.7045 32.0933 84.9978 31.5733 85.3978 31.04C86.0111 30.2133 86.5978 29.4933 87.1578 28.88C87.7178 28.24 88.1311 27.6667 88.3978 27.16C88.6645 26.68 88.7978 26.3067 88.7978 26.04C88.7978 25.64 88.5578 25.44 88.0778 25.44C87.6511 25.44 87.0378 25.68 86.2378 26.16C85.4645 26.6133 84.6511 27.36 83.7978 28.4C83.3178 28.9867 82.7711 29.68 82.1578 30.48C81.5445 31.2533 81.0511 31.9733 80.6778 32.64C80.5178 32.9333 80.3578 33.24 80.1978 33.56C80.0645 33.8533 79.8511 34.36 79.5578 35.08C79.4778 35.2667 79.2511 35.4667 78.8778 35.68C78.5311 35.8933 78.2511 36 78.0378 36C77.8778 36 77.7978 35.9333 77.7978 35.8C77.7978 35.6933 77.8378 35.56 77.9178 35.4C78.0511 35.16 78.3445 34.4 78.7978 33.12C79.2778 31.84 79.8778 30.3333 80.5978 28.6C80.1978 29.0267 79.7578 29.4933 79.2778 30C78.7978 30.48 78.2645 30.9467 77.6778 31.4C77.5711 31.5067 77.4511 31.56 77.3178 31.56C77.1578 31.56 77.0778 31.4933 77.0778 31.36C77.0778 31.2533 77.1978 31.1067 77.4378 30.92C78.0511 30.3867 78.6645 29.8267 79.2778 29.24C79.8911 28.6267 80.5578 27.8667 81.2778 26.96C81.5178 26.3733 81.9445 25.5333 82.5578 24.44C83.1711 23.32 83.9045 22.08 84.7578 20.72C85.6111 19.36 86.5578 18 87.5978 16.64C88.6378 15.28 89.7045 14.0667 90.7978 13C91.7845 12.04 92.8111 11.3067 93.8778 10.8C94.9711 10.2933 95.9578 10.04 96.8378 10.04C97.6111 10.04 98.2378 10.2267 98.7178 10.6C99.1978 10.9733 99.4378 11.5733 99.4378 12.4C99.4378 13.2267 99.2111 14.1067 98.7578 15.04C98.3045 15.9733 97.8245 16.72 97.3178 17.28C96.1711 18.56 94.8111 19.7333 93.2378 20.8C91.6911 21.8667 90.0645 22.7733 88.3578 23.52C88.3045 23.5467 88.2511 23.5733 88.1978 23.6C88.1445 23.6 88.0911 23.6 88.0378 23.6C87.8511 23.6 87.7578 23.5333 87.7578 23.4C87.7578 23.24 87.9045 23.1067 88.1978 23C89.2111 22.5467 90.2378 21.9867 91.2778 21.32C92.3445 20.6533 93.3311 19.9333 94.2378 19.16C95.1445 18.3867 95.9045 17.6133 96.5178 16.84C97.2378 15.9333 97.7045 15.2 97.9178 14.64C98.1311 14.0533 98.2378 13.56 98.2378 13.16C98.2378 12.6267 97.9445 12.36 97.3578 12.36C97.0911 12.36 96.7045 12.4933 96.1978 12.76C95.6911 13 95.0911 13.4 94.3978 13.96C93.3311 14.8133 92.2245 15.8533 91.0778 17.08C89.9578 18.3067 88.8511 19.64 87.7578 21.08C86.6911 22.52 85.6778 23.9867 84.7178 25.48C83.7578 26.9733 82.8911 28.4267 82.1178 29.84C82.4378 29.3867 82.7711 28.9333 83.1178 28.48C83.4645 28 83.8111 27.5733 84.1578 27.2C84.9578 26.32 85.7445 25.68 86.5178 25.28C87.2911 24.88 87.9845 24.68 88.5978 24.68C89.2911 24.68 89.8511 24.8933 90.2778 25.32C90.7045 25.72 90.9178 26.2667 90.9178 26.96C90.9178 27.3333 90.8511 27.7067 90.7178 28.08C90.6111 28.4267 90.4778 28.7467 90.3178 29.04C90.1045 29.4933 89.8245 30.0267 89.4778 30.64C89.1311 31.2533 88.7978 31.8267 88.4778 32.36C87.8645 33.3467 87.5578 34.0533 87.5578 34.48C87.5578 34.72 87.6645 34.84 87.8778 34.84C88.1445 34.84 88.5845 34.6533 89.1978 34.28C89.6778 33.9867 90.2111 33.6133 90.7978 33.16C91.4111 32.68 92.0111 32.1867 92.5978 31.68C93.2111 31.1733 93.7311 30.7333 94.1578 30.36C94.6111 29.96 94.9045 29.6933 95.0378 29.56C95.1978 29.4 95.3178 29.32 95.3978 29.32C95.4778 29.32 95.5178 29.36 95.5178 29.44C95.5178 29.5733 95.4245 29.76 95.2378 30C94.5445 30.72 93.6778 31.5333 92.6378 32.44C91.5978 33.3467 90.4245 34.2267 89.1178 35.08C88.6111 35.4267 88.1178 35.68 87.6378 35.84C87.1845 35.9733 86.7711 36.04 86.3978 36.04ZM96.0906 36.04C95.264 36.04 94.624 35.7867 94.1706 35.28C93.7173 34.7467 93.4906 34.0667 93.4906 33.24C93.4906 32.4667 93.6906 31.6133 94.0906 30.68C94.5173 29.7467 95.184 28.8 96.0906 27.84C97.024 26.8267 98.184 26.0133 99.5706 25.4C100.957 24.76 102.277 24.44 103.531 24.44C104.544 24.44 105.411 24.6667 106.131 25.12C106.851 25.5467 107.331 26.0933 107.571 26.76C107.864 26.76 108.224 26.84 108.651 27C109.104 27.16 109.331 27.4533 109.331 27.88C109.331 28.1733 109.184 28.5067 108.891 28.88C108.704 29.1467 108.371 29.5467 107.891 30.08C107.437 30.6133 107.011 31.1867 106.611 31.8C106.291 32.28 106.037 32.7333 105.851 33.16C105.664 33.56 105.571 33.9067 105.571 34.2C105.571 34.6 105.771 34.8 106.171 34.8C106.624 34.8 107.304 34.5467 108.211 34.04C109.197 33.48 110.144 32.84 111.051 32.12C111.957 31.4 112.664 30.8267 113.171 30.4C113.304 30.2933 113.397 30.24 113.451 30.24C113.557 30.24 113.611 30.3067 113.611 30.44C113.611 30.6 113.544 30.7467 113.411 30.88C113.171 31.0933 112.704 31.4933 112.011 32.08C111.317 32.6667 110.517 33.28 109.611 33.92C108.731 34.56 107.864 35.08 107.011 35.48C106.584 35.6667 106.184 35.8133 105.811 35.92C105.464 36 105.144 36.04 104.851 36.04C104.131 36.04 103.584 35.84 103.211 35.44C102.837 35.0133 102.651 34.4667 102.651 33.8C102.651 33.5333 102.691 33.2533 102.771 32.96C102.851 32.6667 102.944 32.3733 103.051 32.08L103.331 31.4C102.637 32.2533 101.944 32.9733 101.251 33.56C100.557 34.12 99.864 34.6133 99.1706 35.04C98.584 35.3867 98.024 35.64 97.4906 35.8C96.984 35.96 96.5173 36.04 96.0906 36.04ZM97.3306 35C97.8106 35 98.504 34.72 99.4106 34.16C100.317 33.5733 101.371 32.68 102.571 31.48C102.731 31.32 103.024 31.04 103.451 30.64C103.904 30.2133 104.384 29.7467 104.891 29.24C105.397 28.7067 105.824 28.1867 106.171 27.68C106.544 27.1467 106.731 26.7067 106.731 26.36C106.731 25.8533 106.291 25.6 105.411 25.6C104.637 25.6 103.704 25.9067 102.611 26.52C101.544 27.1067 100.517 27.9867 99.5306 29.16C98.5173 30.36 97.7706 31.4 97.2906 32.28C96.8373 33.1333 96.6106 33.7867 96.6106 34.24C96.6106 34.7467 96.8506 35 97.3306 35ZM112.714 36.2C112.447 36.2 112.127 36.1333 111.754 36C111.381 35.8933 111.007 35.68 110.634 35.36C110.927 34.96 111.354 34.4267 111.914 33.76C112.447 33.0667 113.021 32.3067 113.634 31.48C114.247 30.6533 114.821 29.8267 115.354 29C114.927 29.4267 114.461 29.88 113.954 30.36C113.447 30.84 112.941 31.28 112.434 31.68C112.327 31.76 112.221 31.8 112.114 31.8C112.007 31.8 111.954 31.7467 111.954 31.64C111.954 31.48 112.074 31.2933 112.314 31.08C113.061 30.4133 113.874 29.6667 114.754 28.84C115.661 28.0133 116.327 27.1467 116.754 26.24C116.887 25.92 116.954 25.6267 116.954 25.36C116.954 25.0133 116.887 24.8 116.754 24.72C116.647 24.64 116.594 24.5333 116.594 24.4C116.594 24.16 116.714 24.04 116.954 24.04C117.087 24.04 117.194 24.0667 117.274 24.12C117.567 24.2533 117.847 24.5067 118.114 24.88C118.381 25.2533 118.514 25.8267 118.514 26.6C118.514 27.32 118.367 28.12 118.074 29C118.367 28.5467 118.661 28.12 118.954 27.72C119.247 27.2933 119.527 26.9067 119.794 26.56C120.327 25.8667 120.887 25.3467 121.474 25C122.087 24.6267 122.621 24.44 123.074 24.44C123.821 24.44 124.194 24.8667 124.194 25.72C124.194 26.2 124.034 26.8267 123.714 27.6C123.421 28.2667 123.021 29.0667 122.514 30C122.967 29.3867 123.421 28.8 123.874 28.24C124.354 27.68 124.767 27.2133 125.114 26.84C125.887 26.0667 126.621 25.5067 127.314 25.16C128.034 24.8133 128.687 24.64 129.274 24.64C129.967 24.64 130.514 24.84 130.914 25.24C131.341 25.6133 131.554 26.1333 131.554 26.8C131.554 27.28 131.434 27.8 131.194 28.36C131.034 28.68 130.767 29.1067 130.394 29.64C130.021 30.1733 129.621 30.7333 129.194 31.32C128.767 31.9067 128.407 32.44 128.114 32.92C127.821 33.4 127.674 33.7467 127.674 33.96C127.674 34.2267 127.821 34.36 128.114 34.36C128.567 34.36 129.087 34.16 129.674 33.76C130.367 33.28 131.114 32.7067 131.914 32.04C132.714 31.3733 133.367 30.8267 133.874 30.4C133.981 30.2933 134.074 30.24 134.154 30.24C134.261 30.24 134.314 30.3067 134.314 30.44C134.314 30.6 134.247 30.7467 134.114 30.88C133.714 31.2533 133.194 31.72 132.554 32.28C131.941 32.84 131.274 33.4 130.554 33.96C129.834 34.52 129.127 35 128.434 35.4C127.741 35.7733 127.127 35.96 126.594 35.96C125.901 35.96 125.327 35.8 124.874 35.48C124.447 35.16 124.234 34.6533 124.234 33.96C124.234 33.5067 124.327 33 124.514 32.44C124.701 31.88 125.074 31.2267 125.634 30.48C126.194 29.7067 126.794 28.96 127.434 28.24C128.074 27.4933 128.607 26.88 129.034 26.4C129.354 26.0267 129.514 25.7467 129.514 25.56C129.514 25.32 129.354 25.2 129.034 25.2C128.661 25.2 128.101 25.4 127.354 25.8C126.634 26.2 125.861 26.84 125.034 27.72C124.501 28.28 123.954 28.9867 123.394 29.84C122.861 30.6933 122.381 31.56 121.954 32.44C121.527 33.2933 121.194 34.0533 120.954 34.72C120.767 35.2 120.421 35.44 119.914 35.44C119.647 35.44 119.394 35.36 119.154 35.2C118.941 35.04 118.887 34.8667 118.994 34.68C119.661 33.5067 120.314 32.3467 120.954 31.2C121.621 30.0533 122.221 28.8533 122.754 27.6C123.127 26.7733 123.314 26.1467 123.314 25.72C123.314 25.3467 123.154 25.16 122.834 25.16C122.514 25.16 122.074 25.36 121.514 25.76C120.981 26.1333 120.514 26.56 120.114 27.04C119.474 27.7867 118.861 28.6267 118.274 29.56C117.687 30.4667 117.181 31.2933 116.754 32.04C116.407 32.6 116.047 33.1467 115.674 33.68C115.301 34.2133 114.887 34.72 114.434 35.2C113.847 35.8667 113.274 36.2 112.714 36.2ZM142.537 23.76C142.164 23.76 141.884 23.64 141.697 23.4C141.511 23.16 141.417 22.9067 141.417 22.64C141.417 22.1067 141.671 21.5867 142.177 21.08C142.684 20.5467 143.217 20.28 143.777 20.28C144.151 20.28 144.431 20.4 144.617 20.64C144.804 20.88 144.897 21.1333 144.897 21.4C144.897 21.96 144.644 22.4933 144.137 23C143.657 23.5067 143.124 23.76 142.537 23.76ZM136.417 36.04C135.324 36.04 134.577 35.8133 134.177 35.36C133.804 34.88 133.617 34.3467 133.617 33.76C133.617 33.28 133.697 32.8267 133.857 32.4C134.017 31.9467 134.151 31.6267 134.257 31.44C134.417 31.1733 134.631 30.8667 134.897 30.52C135.191 30.1733 135.511 29.8 135.857 29.4C135.324 29.8533 134.817 30.2933 134.337 30.72C133.884 31.1467 133.511 31.4667 133.217 31.68C133.137 31.76 133.057 31.8 132.977 31.8C132.871 31.8 132.817 31.7333 132.817 31.6C132.817 31.3867 132.964 31.1733 133.257 30.96C133.951 30.3733 134.617 29.7333 135.257 29.04C135.924 28.3467 136.551 27.7067 137.137 27.12C137.724 26.5067 138.244 26.08 138.697 25.84C139.177 25.5733 139.564 25.4 139.857 25.32C140.151 25.24 140.391 25.2 140.577 25.2C140.871 25.2 141.084 25.2533 141.217 25.36C141.351 25.44 141.377 25.5333 141.297 25.64C140.844 26.0933 140.391 26.68 139.937 27.4C139.511 28.0933 139.111 28.8267 138.737 29.6C138.364 30.3733 138.057 31.1067 137.817 31.8C137.604 32.4933 137.497 33.08 137.497 33.56C137.497 34.2267 137.764 34.56 138.297 34.56C138.804 34.56 139.457 34.3333 140.257 33.88C141.084 33.4 141.937 32.8 142.817 32.08C143.724 31.36 144.564 30.6533 145.337 29.96C145.444 29.8533 145.537 29.8 145.617 29.8C145.751 29.8 145.817 29.8667 145.817 30C145.844 30.1333 145.817 30.2267 145.737 30.28C144.857 31.1067 143.857 31.9733 142.737 32.88C141.644 33.76 140.537 34.5067 139.417 35.12C138.324 35.7333 137.324 36.04 136.417 36.04ZM144.433 36.2C144.166 36.2 143.846 36.1333 143.473 36C143.099 35.8933 142.726 35.68 142.353 35.36C142.646 34.96 143.073 34.4267 143.633 33.76C144.166 33.0667 144.739 32.3067 145.353 31.48C145.966 30.6533 146.539 29.8267 147.073 29C146.646 29.4267 146.179 29.88 145.673 30.36C145.166 30.84 144.659 31.28 144.153 31.68C144.046 31.7867 143.926 31.84 143.793 31.84C143.686 31.84 143.633 31.7867 143.633 31.68C143.633 31.5467 143.739 31.3867 143.953 31.2C144.699 30.5333 145.526 29.7733 146.433 28.92C147.366 28.04 148.046 27.1467 148.473 26.24C148.606 25.92 148.673 25.6267 148.673 25.36C148.673 25.0133 148.606 24.8 148.473 24.72C148.366 24.64 148.313 24.5333 148.313 24.4C148.313 24.16 148.433 24.04 148.673 24.04C148.806 24.04 148.913 24.0667 148.993 24.12C149.286 24.2533 149.566 24.5067 149.833 24.88C150.099 25.2533 150.233 25.8133 150.233 26.56C150.233 26.9867 150.179 27.48 150.073 28.04C149.966 28.5733 149.779 29.1867 149.513 29.88C149.913 29.3467 150.313 28.8267 150.713 28.32C151.139 27.8133 151.526 27.36 151.873 26.96C152.593 26.1333 153.313 25.5467 154.033 25.2C154.779 24.8267 155.446 24.64 156.033 24.64C156.726 24.64 157.286 24.84 157.713 25.24C158.139 25.64 158.353 26.16 158.353 26.8C158.353 27.3067 158.219 27.8267 157.953 28.36C157.873 28.5733 157.686 28.9067 157.393 29.36C157.099 29.7867 156.779 30.2533 156.433 30.76C156.086 31.2667 155.766 31.72 155.473 32.12C155.126 32.5467 154.886 32.92 154.753 33.24C154.619 33.5333 154.553 33.7733 154.553 33.96C154.553 34.2267 154.699 34.36 154.993 34.36C155.366 34.36 155.886 34.16 156.553 33.76C156.953 33.52 157.406 33.2 157.913 32.8C158.446 32.3733 158.966 31.9467 159.473 31.52C160.006 31.0667 160.433 30.6933 160.753 30.4C160.859 30.2933 160.953 30.24 161.033 30.24C161.139 30.24 161.193 30.3067 161.193 30.44C161.193 30.6 161.126 30.7467 160.993 30.88C160.193 31.6267 159.259 32.44 158.193 33.32C157.153 34.2 156.126 34.88 155.113 35.36C154.286 35.76 153.526 35.96 152.833 35.96C152.246 35.96 151.779 35.8133 151.433 35.52C151.086 35.2 150.913 34.7467 150.913 34.16C150.913 33.7333 151.019 33.2267 151.233 32.64C151.499 31.92 151.873 31.2 152.353 30.48C152.859 29.76 153.379 29.08 153.913 28.44C154.473 27.7733 154.953 27.2133 155.353 26.76C155.699 26.3867 155.873 26.0667 155.873 25.8C155.873 25.56 155.713 25.44 155.393 25.44C155.073 25.44 154.593 25.6267 153.953 26C153.339 26.3467 152.646 26.92 151.873 27.72C150.779 28.8667 149.819 30.1067 148.993 31.44C148.166 32.7733 147.219 34.0267 146.153 35.2C145.566 35.8667 144.993 36.2 144.433 36.2Z" fill="white"/>
</svg>
