<svg width="44" height="44" viewBox="0 0 44 44" fill="none" xmlns="http://www.w3.org/2000/svg">
<path fill-rule="evenodd" clip-rule="evenodd" d="M21.5882 0C9.66649 0 0 9.90743 0 22.1375C0 31.9197 6.18733 40.208 14.7648 43.1378C15.8442 43.3402 16.2393 42.6559 16.2393 42.068C16.2393 41.538 16.22 40.1502 16.2104 38.2997C10.2062 39.6394 8.93404 35.3314 8.93404 35.3314C7.951 32.7774 6.53428 32.0931 6.53428 32.0931C4.57785 30.715 6.67884 30.7439 6.67884 30.7439C8.8473 30.8981 9.98453 33.028 9.98453 33.028C11.9121 36.4108 15.0346 35.4374 16.2682 34.8688C16.461 33.4424 17.02 32.4594 17.6368 31.91C12.8469 31.351 7.80644 29.4524 7.80644 20.9714C7.80644 18.5523 8.64491 16.5766 10.0231 15.0346C9.80142 14.4756 9.05933 12.2205 10.2351 9.17498C10.2351 9.17498 12.047 8.57745 16.1719 11.4398C17.897 10.9483 19.7378 10.7074 21.5785 10.6977C23.4097 10.7074 25.2601 10.9483 26.9852 11.4398C31.1101 8.57745 32.9123 9.17498 32.9123 9.17498C34.0881 12.2205 33.346 14.4756 33.1244 15.0346C34.5025 16.5863 35.341 18.562 35.341 20.9714C35.341 29.4717 30.2909 31.3414 25.4818 31.8908C26.2528 32.575 26.9467 33.9243 26.9467 35.9867C26.9467 38.9455 26.9178 41.3356 26.9178 42.0584C26.9178 42.6463 27.3033 43.3402 28.402 43.1185C36.9987 40.1983 43.1764 31.91 43.1764 22.1375C43.1764 9.90743 33.5099 0 21.5882 0Z" fill="white"/>
</svg>
