<svg width="26" height="28" viewBox="0 0 26 28" fill="none" xmlns="http://www.w3.org/2000/svg">
<path d="M25.8978 2.08565L25.7328 0.353149L24.0828 0.903149C21.255 1.88565 18.2353 2.18715 15.2691 1.78315C12.1521 1.29944 8.96183 1.72927 6.08407 3.02065C4.55848 3.67026 3.2196 4.69116 2.18935 5.99039C1.15909 7.28962 0.470172 8.82591 0.185318 10.4594C-0.184035 12.5696 0.000741214 14.7395 0.721569 16.7569C1.18571 15.7093 1.72807 14.6981 2.34407 13.7319C3.74134 11.6761 5.67745 10.0444 7.94032 9.01565C10.1203 8.02032 12.5031 7.54941 14.8978 7.64065C12.6181 7.98921 10.4359 8.80869 8.49032 10.0469C7.55185 10.6366 6.69241 11.3435 5.93282 12.1506C5.20636 12.9574 4.56582 13.8376 4.02157 14.7769C2.9993 16.7404 2.2719 18.8438 1.86282 21.0194C1.42187 23.202 1.18253 25.4205 1.14782 27.6469H3.89782C4.02707 25.6502 4.29817 23.6652 4.70907 21.7069C6.61679 22.7371 8.75618 23.2624 10.9241 23.2332C12.946 23.2318 14.9471 22.825 16.8091 22.0369C27.2728 17.5681 25.8978 2.7044 25.8978 2.08565Z" fill="white"/>
</svg>
