<svg width="50" height="49" viewBox="0 0 50 49" fill="none" xmlns="http://www.w3.org/2000/svg">
<g clip-path="url(#clip0_125_215)">
<path fill-rule="evenodd" clip-rule="evenodd" d="M25 0C38.7979 0 50 10.9781 50 24.5C50 38.0219 38.7979 49 25 49C11.2021 49 0 38.0219 0 24.5C0 10.9781 11.2021 0 25 0ZM17.1839 38.2689V19.1358H10.6933V38.2689H17.1839ZM40.5843 38.2689V27.2969C40.5843 21.4199 37.3824 18.6859 33.1127 18.6859C29.6698 18.6859 28.1276 20.5415 27.2642 21.8448V19.1358H20.7752C20.8612 20.9309 20.7752 38.2689 20.7752 38.2689H27.2641V27.5837C27.2641 27.0117 27.3061 26.44 27.478 26.0312C27.9463 24.889 29.0148 23.7058 30.8076 23.7058C33.1547 23.7058 34.095 25.461 34.095 28.0319V38.2689H40.5843ZM13.9824 9.91006C11.7617 9.91006 10.3108 11.3408 10.3108 13.2161C10.3108 15.0519 11.7176 16.5221 13.8965 16.5221H13.9384C16.2016 16.5221 17.6103 15.0519 17.6103 13.2161C17.5683 11.3408 16.2017 9.91006 13.9824 9.91006Z" fill="white"/>
</g>
<defs>
<clipPath id="clip0_125_215">
<rect width="50" height="49" fill="white"/>
</clipPath>
</defs>
</svg>
