<svg width="49" height="50" viewBox="0 0 49 50" fill="none" xmlns="http://www.w3.org/2000/svg">
<path d="M24.5 0C10.969 0 0 11.1929 0 25C0 38.8071 10.969 50 24.5 50C38.031 50 49 38.8071 49 25C49 11.1929 38.031 0 24.5 0ZM37.2342 15.8141L32.8827 37.0117C32.8301 37.2681 32.7151 37.5069 32.5485 37.7061C32.3818 37.9053 32.1687 38.0586 31.9288 38.1519C31.6889 38.2452 31.4299 38.2754 31.1756 38.2399C30.9212 38.2044 30.6797 38.1042 30.4732 37.9485L24.1438 33.177L20.3092 36.8684C20.259 36.9167 20.1998 36.9543 20.1352 36.9791C20.0706 37.0038 20.0018 37.0152 19.9329 37.0125C19.8639 37.0098 19.7962 36.9932 19.7336 36.9635C19.671 36.9338 19.6149 36.8917 19.5684 36.8396L19.486 36.7473L20.1523 30.1677L32.1615 18.9713C32.2209 18.916 32.2578 18.84 32.265 18.7583C32.2722 18.6766 32.2491 18.5952 32.2003 18.53C32.1515 18.4648 32.0806 18.4206 32.0014 18.4062C31.9223 18.3918 31.8408 18.4081 31.7729 18.4521L16.4145 28.371L9.8 26.1042C9.62412 26.0439 9.47084 25.9296 9.36117 25.7769C9.2515 25.6241 9.19083 25.4405 9.18748 25.2513C9.18412 25.062 9.23825 24.8762 9.34243 24.7196C9.44662 24.5629 9.59575 24.443 9.76937 24.3763L35.6494 14.4281C35.849 14.3515 36.0652 14.3309 36.2753 14.3687C36.4853 14.4064 36.6816 14.5011 36.8436 14.6427C37.0055 14.7844 37.1272 14.9678 37.1959 15.1739C37.2647 15.3799 37.2779 15.601 37.2342 15.8141Z" fill="white"/>
</svg>
